<svg xmlns="http://www.w3.org/2000/svg" viewBox="0 0 48 48">
    <path fill="#252F3E"
        d="M13.527 23.955c0 .61.061 1.103.183 1.476.122.374.305.778.547 1.213.082.146.122.293.122.439 0 .195-.122.39-.366.585l-1.213.813c-.171.122-.342.183-.512.183-.195 0-.39-.098-.585-.293a5.96 5.96 0 0 1-.707-.927c-.195-.342-.39-.732-.585-1.171-1.476 1.744-3.33 2.616-5.562 2.616-1.598 0-2.872-.458-3.818-1.373-.947-.915-1.421-2.141-1.421-3.677 0-1.634.574-2.958 1.72-3.971 1.147-1.013 2.677-1.519 4.591-1.519.634 0 1.293.049 1.976.146.683.098 1.391.244 2.123.439v-1.348c0-1.403-.293-2.385-.878-2.946-.585-.561-1.573-.841-2.97-.841-.634 0-1.287.073-1.957.22-.671.146-1.33.342-1.976.585-.293.122-.512.195-.658.22-.146.024-.256.037-.329.037-.293 0-.439-.22-.439-.659v-1.042c0-.342.049-.585.146-.732.098-.146.293-.293.585-.439.732-.39 1.61-.72 2.634-.988 1.024-.268 2.117-.402 3.281-.402 2.507 0 4.347.573 5.525 1.72 1.177 1.147 1.768 2.885 1.768 5.214v6.868h.001zm-7.685 3.208c.61 0 1.244-.11 1.902-.329.659-.22 1.244-.622 1.756-1.207.293-.366.512-.78.658-1.244.146-.463.22-.976.22-1.536v-.732c-.537-.134-1.104-.244-1.701-.329-.598-.085-1.177-.128-1.738-.128-1.232 0-2.141.244-2.726.732-.585.488-.878 1.177-.878 2.068 0 .841.207 1.482.622 1.921.415.439 1.013.659 1.793.659l.092.125zm13.686 2.324c-.378 0-.634-.073-.768-.22-.134-.146-.256-.439-.366-.878l-4.091-13.485c-.11-.439-.165-.732-.165-.878 0-.342.165-.512.494-.512h2.031c.39 0 .658.073.792.22.134.146.244.439.354.878l2.922 11.527 2.714-11.527c.085-.439.195-.732.329-.878.134-.146.415-.22.805-.22h1.658c.39 0 .658.073.805.22.146.146.256.439.329.878l2.751 11.673 3.013-11.673c.11-.439.232-.732.366-.878.134-.146.402-.22.78-.22h1.927c.329 0 .494.171.494.512 0 .098-.012.207-.037.329-.024.122-.073.317-.146.585l-4.188 13.485c-.11.439-.232.732-.366.878-.134.146-.402.22-.78.22h-1.781c-.39 0-.671-.073-.817-.22-.146-.146-.256-.451-.329-.915l-2.702-11.246-2.677 11.234c-.085.463-.195.768-.342.915-.146.146-.427.22-.817.22h-1.781zm25.664.512c-1.11 0-2.22-.134-3.33-.402-1.11-.268-1.976-.561-2.592-.878-.342-.195-.573-.402-.671-.585-.098-.183-.146-.378-.146-.585v-1.079c0-.439.171-.659.512-.659.134 0 .268.024.402.073.134.049.329.122.585.22.781.342 1.622.61 2.531.805.915.195 1.817.293 2.738.293 1.451 0 2.58-.256 3.379-.768.799-.512 1.201-1.244 1.201-2.19 0-.634-.195-1.159-.585-1.573-.39-.415-1.128-.78-2.214-1.098l-3.184-.988c-1.61-.5-2.787-1.238-3.538-2.214-.75-.976-1.128-2.068-1.128-3.269 0-.939.195-1.768.585-2.482.39-.72.915-1.33 1.573-1.829.659-.5 1.409-.878 2.263-1.128.854-.256 1.756-.378 2.702-.378 1.177 0 2.324.134 3.44.402 1.116.268 1.89.561 2.324.878.293.195.5.402.622.622.122.22.183.439.183.658v1.006c0 .439-.171.659-.512.659-.183 0-.427-.085-.732-.256-1.11-.512-2.348-.768-3.715-.768-1.323 0-2.36.22-3.11.658-.75.439-1.128 1.116-1.128 2.031 0 .634.207 1.171.622 1.61.415.439 1.189.841 2.324 1.207l3.123.988c1.585.5 2.732 1.213 3.44 2.141.707.927 1.061 1.988 1.061 3.184 0 .976-.195 1.842-.585 2.592-.39.75-.915 1.391-1.573 1.915-.659.524-1.433.927-2.324 1.207-.891.28-1.854.42-2.885.42z" />
    <path fill="#FF9900"
        d="M43.883 33.529c-5.312 3.928-13.022 6.007-19.639 6.007-9.301 0-17.681-3.44-24.023-9.167-.5-.439-.049-1.042.549-.695 6.856 3.989 15.328 6.398 24.084 6.398 5.904 0 12.394-1.226 18.359-3.77.903-.256 1.659.585.671 1.226zm2.19-2.495c-.683-.878-4.517-.415-6.246-.207-.525.049-.61-.39-.134-.732 3.062-2.153 8.081-1.524 8.667-.805.585.732-.159 5.775-3.037 8.185-.439.366-.854.171-.659-.317.634-1.598 2.092-5.165 1.409-6.044z" />
</svg>