<svg xmlns="http://www.w3.org/2000/svg" viewBox="0 0 48 48">
    <path fill="#0089D6"
        d="M24.876 24.086c.11-.282 4.234-10.415 8.354-20.527.065-.159.159-.282.299-.352.141-.07.299-.07.44 0 .141.07.246.194.299.352 4.12 10.112 8.244 20.245 8.354 20.527.065.159.065.335 0 .493-.065.159-.183.282-.334.352l-8.354 3.873c-.141.07-.299.07-.44 0-.141-.07-.246-.194-.299-.352l-8.354-20.527c-.065-.159-.065-.335 0-.493.065-.159.183-.282.334-.352l8.354-3.873c.141-.07.299-.07.44 0 .141.07.246.194.299.352l4.12 10.112-4.12 10.112c-.065.159-.183.282-.334.352-.151.07-.316.07-.458 0zM5.771 34.55c-.141.07-.299.07-.44 0-.141-.07-.246-.194-.299-.352L.688 23.945c-.065-.159-.065-.335 0-.493.065-.159.183-.282.334-.352l4.12-1.937c.141-.07.299-.07.44 0 .141.07.246.194.299.352l4.12 10.112c.065.159.065.335 0 .493-.065.159-.183.282-.334.352l-3.896 1.937zm20.527-20.527c.11-.282 4.234-10.415 8.354-20.527.065-.159.159-.282.299-.352.141-.07.299-.07.44 0 .141.07.246.194.299.352 4.12 10.112 8.244 20.245 8.354 20.527.065.159.065.335 0 .493-.065.159-.183.282-.334.352l-8.354 3.873c-.141.07-.299.07-.44 0-.141-.07-.246-.194-.299-.352l-8.354-20.527c-.065-.159-.065-.335 0-.493.065-.159.183-.282.334-.352l8.354-3.873z" />
</svg>