<svg xmlns="http://www.w3.org/2000/svg" viewBox="0 0 48 48">
    <path fill="#EA4335"
        d="M24 9.604c-7.91 0-14.396 6.486-14.396 14.396 0 7.91 6.486 14.396 14.396 14.396S38.396 31.91 38.396 24c0-7.91-6.486-14.396-14.396-14.396zm0 23.104c-4.791 0-8.708-3.917-8.708-8.708s3.917-8.708 8.708-8.708 8.708 3.917 8.708 8.708-3.917 8.708-8.708 8.708z" />
    <path fill="#4285F4"
        d="M24 0C10.745 0 0 10.745 0 24s10.745 24 24 24 24-10.745 24-24S37.255 0 24 0zm0 42.667C13.648 42.667 5.333 34.352 5.333 24S13.648 5.333 24 5.333 42.667 13.648 42.667 24 34.352 42.667 24 42.667z" />
    <path fill="#34A853"
        d="M24 19.125c-2.692 0-4.875 2.183-4.875 4.875s2.183 4.875 4.875 4.875 4.875-2.183 4.875-4.875-2.183-4.875-4.875-4.875z" />
</svg>